<?xml version="1.0" encoding="UTF-8"?>
<svg id="Layer_1" data-name="Layer 1" xmlns="http://www.w3.org/2000/svg" viewBox="0 0 156.67 39.99">
  <defs>
    <style>
      .cls-1, .cls-2, .cls-3 {
        fill: gray;
        fill-rule: evenodd;
      }

      .cls-2 {
        opacity: .5;
      }

      .cls-2, .cls-3 {
        isolation: isolate;
      }

      .cls-4 {
        letter-spacing: -.02em;
      }

      .cls-5 {
        letter-spacing: -.05em;
      }

      .cls-6 {
        letter-spacing: 0em;
      }

      .cls-7 {
        fill: gray;
        font-family: FiraSans-MediumItalic, 'Fira Sans';
        font-size: 27.04px;
        font-style: italic;
        font-weight: 500;
      }

      .cls-3 {
        opacity: .7;
      }
    </style>
  </defs>
  <path class="cls-2" d="M35.09,5.88l-9.83-2.34c-.68-.16-1.23.21-1.23.84v9.05c0,.62.55,1.26,1.23,1.42l9.83,2.34c.68.16,1.23-.21,1.23-.84V7.31c0-.62-.55-1.26-1.23-1.42h0ZM25.26.15c-2.71-.65-4.91.85-4.91,3.35v9.05c0,2.5,2.2,5.05,4.91,5.69l9.83,2.34c2.71.65,4.91-.85,4.91-3.35v-9.05c0-2.5-2.2-5.05-4.91-5.69L25.26.15Z"/>
  <path class="cls-3" d="M27.37,13.25l-12.28-2.93c-.68-.16-1.23.21-1.23.84v11.31c0,.62.55,1.26,1.23,1.42l12.28,2.93c.68.16,1.23-.21,1.23-.84v-11.31c0-.62-.55-1.26-1.23-1.42ZM15.09,6.94c-2.71-.65-4.91.85-4.91,3.35v11.31c0,2.5,2.2,5.05,4.91,5.69l12.28,2.93c2.71.65,4.91-.85,4.91-3.35v-11.31c0-2.5-2.2-5.05-4.91-5.69,0,0-12.28-2.93-12.28-2.93Z"/>
  <path class="cls-1" d="M19.65,20.63l-14.74-3.51c-.68-.16-1.23.21-1.23.84v13.57c0,.62.55,1.26,1.23,1.42l14.74,3.51c.68.16,1.23-.21,1.23-.84v-13.57c0-.62-.55-1.26-1.23-1.42ZM4.91,13.72c-2.71-.65-4.91.85-4.91,3.35v13.57c0,2.5,2.2,5.05,4.91,5.69l14.74,3.51c2.71.65,4.91-.85,4.91-3.35v-13.57c0-2.5-2.2-5.05-4.91-5.69,0,0-14.74-3.51-14.74-3.51Z"/>
  <text class="cls-7" transform="translate(44.79 29.94)"><tspan class="cls-5" x="0" y="0">T</tspan><tspan x="12.63" y="0">emp</tspan><tspan class="cls-6" x="65.2" y="0">l</tspan><tspan x="72.85" y="0">a</tspan><tspan class="cls-4" x="88.29" y="0">t</tspan><tspan x="97.68" y="0">e</tspan></text>
</svg>