<svg xmlns="http://www.w3.org/2000/svg" version="1.1" xmlns:xlink="http://www.w3.org/1999/xlink" width="40" height="40"><svg id="SvgjsSvg1118" xmlns="http://www.w3.org/2000/svg" version="1.1" viewBox="0 0 40 40">
  <defs>
    <style>
      .st0, .st1, .st2 {
        fill: gray;
        fill-rule: evenodd;
      }

      .st1 {
        opacity: .5;
      }

      .st1, .st2 {
        isolation: isolate;
      }

      .st2 {
        opacity: .7;
      }
    </style>
  </defs>
  <path class="st1" d="M35.09,5.88l-9.83-2.34c-.68-.16-1.23.21-1.23.84v9.05c0,.62.55,1.26,1.23,1.42l9.83,2.34c.68.16,1.23-.21,1.23-.84V7.31c0-.62-.55-1.26-1.23-1.42h0ZM25.26.15c-2.71-.65-4.91.85-4.91,3.35v9.05c0,2.5,2.2,5.05,4.91,5.69l9.83,2.34c2.71.65,4.91-.85,4.91-3.35v-9.05c0-2.5-2.2-5.05-4.91-5.69L25.26.15Z"></path>
  <path class="st2" d="M27.37,13.25l-12.28-2.93c-.68-.16-1.23.21-1.23.84v11.31c0,.62.55,1.26,1.23,1.42l12.28,2.93c.68.16,1.23-.21,1.23-.84v-11.31c0-.62-.55-1.26-1.23-1.42ZM15.09,6.94c-2.71-.65-4.91.85-4.91,3.35v11.31c0,2.5,2.2,5.05,4.91,5.69l12.28,2.93c2.71.65,4.91-.85,4.91-3.35v-11.31c0-2.5-2.2-5.05-4.91-5.69,0,0-12.28-2.93-12.28-2.93Z"></path>
  <path class="st0" d="M19.65,20.63l-14.74-3.51c-.68-.16-1.23.21-1.23.84v13.57c0,.62.55,1.26,1.23,1.42l14.74,3.51c.68.16,1.23-.21,1.23-.84v-13.57c0-.62-.55-1.26-1.23-1.42ZM4.91,13.72c-2.71-.65-4.91.85-4.91,3.35v13.57c0,2.5,2.2,5.05,4.91,5.69l14.74,3.51c2.71.65,4.91-.85,4.91-3.35v-13.57c0-2.5-2.2-5.05-4.91-5.69,0,0-14.74-3.51-14.74-3.51Z"></path>
</svg><style>@media (prefers-color-scheme: light) { :root { filter: none; } }
@media (prefers-color-scheme: dark) { :root { filter: none; } }
</style></svg>